<svg xmlns="http://www.w3.org/2000/svg" version="1.1" xmlns:xlink="http://www.w3.org/1999/xlink" viewBox="0 0 8.373259497641662 3.0906606206885368"><g transform="matrix(0.7638829273673564,0,0,0.7638829273673564,1.353413629617298,1.1202294612643344)"><rect width="9.328586174169178" height="9.328586174169178" x="-0.9553266765275166" y="-4.107793087084589" fill="#f9f7e9"></rect><g transform="matrix(1,0,0,1,0,0)" clip-path="url(#SvgjsClipPath172626)"><g clip-path="url(#SvgjsClipPath1726215cc25116-2e8b-44c9-bfa9-7c30dddffc43)"><path d=" M 7.13498626746718 -0.22818012987400432 L 7.13498626746718 -0.5112072606400484 C 6.79595803894102 -0.4679776362540048 6.479612269435684 -0.2678643610205587 6.350285993313405 0.08909227650074403 C 6.2209194286315865 -0.2678643610205602 5.904613947685792 -0.4679776362540048 5.565585719159631 -0.5112072606400484 L 5.565585719159631 -0.22822041843354263 C 6.332841047032737 -0.08934575370036757 6.332841047032737 1.2023054651408294 5.565585719159631 1.341180129874006 L 5.565585719159631 1.6241266835209718 C 5.904613947685792 1.580897059134927 6.2209194286315865 1.3807837839014823 6.350285993313405 1.023827146380178 C 6.479612269435684 1.3807837839014823 6.79595803894102 1.580897059134927 7.13498626746718 1.6241266835209718 L 7.13498626746718 1.341180129874006 C 6.367690651034534 1.2023457537003692 6.367690651034534 -0.08930546514082932 7.13498626746718 -0.22818012987400432 Z" fill="#3f170e" transform="matrix(1,0,0,1,0,0)" fill-rule="evenodd"></path></g><g clip-path="url(#SvgjsClipPath1726215cc25116-2e8b-44c9-bfa9-7c30dddffc43)"><path d=" M 6.817552706854272 0.5564395671606903 C 7.1745093443755765 0.4270730024788719 7.3746226196090205 0.110767521533077 7.417852243995066 -0.22826070699308393 L 7.13486540178856 -0.22826070699308393 C 6.9959907370553855 0.5389946208800214 5.704339518214188 0.5389946208800214 5.565464853481013 -0.22826070699308393 L 5.282558588393587 -0.22826070699308393 C 5.3257882127796305 0.110767521533077 5.525901488013076 0.4270730024788719 5.88285812553438 0.5564395671606903 C 5.525861199453535 0.685765843282969 5.325747924220092 1.0021116127883054 5.282558588393587 1.3411398413144646 L 5.565545430600093 1.3411398413144646 C 5.704420095333268 0.5738442248818194 6.996071314174465 0.5738442248818194 7.134945978907641 1.3411398413144646 L 7.417932821114148 1.3411398413144646 C 7.374703196728101 1.0021921899073833 7.174589921494656 0.6858464204020487 6.817552706854272 0.5564395671606903 Z" fill="#d56a34" transform="matrix(1,0,0,1,0,0)" fill-rule="evenodd"></path></g></g><g><path d=" M 0.7875 0.013500000000000068 Q 0.8220000000000001 0.013500000000000068 0.83925 0.01574999999999993 Q 0.8565 0.018000000000000016 0.87825 0.030000000000000027 Q 0.9 0.04200000000000004 0.909 0.07050000000000001 Q 0.918 0.09899999999999998 0.918 0.14700000000000002 Q 0.918 0.19499999999999995 0.909 0.22349999999999992 Q 0.9 0.252 0.8775000000000001 0.26325 Q 0.855 0.27449999999999997 0.83775 0.27674999999999994 Q 0.8205 0.279 0.7845 0.279 L 0.3255 0.279 L 0.3255 0.4305 L 0.621 0.4305 Q 0.657 0.4305 0.67425 0.43274999999999997 Q 0.6915 0.43499999999999994 0.714 0.44699999999999995 Q 0.753 0.46950000000000003 0.753 0.5655 Q 0.753 0.6705 0.6960000000000001 0.69 Q 0.672 0.6975 0.6195 0.6975 L 0.3255 0.6975 L 0.3255 0.981 Q 0.3255 1.017 0.32325 1.0335 Q 0.321 1.05 0.309 1.0725 Q 0.28800000000000003 1.113 0.192 1.113 Q 0.08700000000000001 1.113 0.069 1.056 Q 0.06 1.032 0.06 0.9795 L 0.06 0.14549999999999996 Q 0.06 0.06899999999999995 0.0885 0.04125000000000001 Q 0.117 0.013500000000000068 0.1965 0.013500000000000068 L 0.7875 0.013500000000000068 M 1.281035888671875 0.891 L 1.689035888671875 0.891 Q 1.738535888671875 0.891 1.7610358886718749 0.90225 Q 1.783535888671875 0.9135 1.7910358886718751 0.9375 Q 1.798535888671875 0.9615 1.798535888671875 1.00125 Q 1.798535888671875 1.041 1.7910358886718751 1.065 Q 1.783535888671875 1.089 1.765535888671875 1.098 Q 1.7370358886718749 1.113 1.687535888671875 1.113 L 1.147535888671875 1.113 Q 1.042535888671875 1.113 1.024535888671875 1.056 Q 1.015535888671875 1.032 1.015535888671875 0.9795 L 1.015535888671875 0.14549999999999996 Q 1.015535888671875 0.11099999999999999 1.017785888671875 0.09375 Q 1.020035888671875 0.07650000000000001 1.032035888671875 0.05400000000000005 Q 1.053035888671875 0.013500000000000068 1.149035888671875 0.013500000000000068 Q 1.254035888671875 0.013500000000000068 1.273535888671875 0.06899999999999995 Q 1.281035888671875 0.09450000000000003 1.281035888671875 0.14700000000000002 L 1.281035888671875 0.891 M 2.41199853515625 0 Q 2.63399853515625 0 2.79749853515625 0.16049999999999998 Q 2.96099853515625 0.32099999999999995 2.96099853515625 0.55875 Q 2.96099853515625 0.7965 2.80499853515625 0.96375 Q 2.64899853515625 1.131 2.42099853515625 1.131 Q 2.19299853515625 1.131 2.03324853515625 0.966 Q 1.87349853515625 0.8009999999999999 1.87349853515625 0.573 Q 1.87349853515625 0.4485 1.91849853515625 0.33975 Q 1.96349853515625 0.23099999999999998 2.03849853515625 0.15749999999999997 Q 2.11349853515625 0.08400000000000007 2.21099853515625 0.04200000000000004 Q 2.30849853515625 0 2.41199853515625 0 M 2.22524853515625 0.78225 Q 2.3114985351562503 0.8654999999999999 2.41799853515625 0.8654999999999999 Q 2.52449853515625 0.8654999999999999 2.60999853515625 0.7845 Q 2.69549853515625 0.7035 2.69549853515625 0.567 Q 2.69549853515625 0.4305 2.60924853515625 0.348 Q 2.5229985351562503 0.26549999999999996 2.41649853515625 0.26549999999999996 Q 2.30999853515625 0.26549999999999996 2.22449853515625 0.34875 Q 2.13899853515625 0.43199999999999994 2.13899853515625 0.5655 Q 2.13899853515625 0.699 2.22524853515625 0.78225 M 4.37403515625 0.019500000000000073 Q 4.47453515625 0.05549999999999988 4.47453515625 0.11549999999999994 Q 4.47453515625 0.135 4.45653515625 0.18899999999999995 L 4.16853515625 1.0215 Q 4.16553515625 1.032 4.1580351562499995 1.047 Q 4.15053515625 1.062 4.11828515625 1.0867499999999999 Q 4.08603515625 1.1115 4.0417851562500005 1.1115 Q 3.99753515625 1.1115 3.96528515625 1.0867499999999999 Q 3.93303515625 1.062 3.92253515625 1.038 L 3.74703515625 0.5205 Q 3.58053515625 1.0125 3.5775351562499997 1.0215 Q 3.57453515625 1.0305 3.56403515625 1.047 Q 3.55353515625 1.0635 3.54003515625 1.077 Q 3.50553515625 1.1115 3.45753515625 1.1115 Q 3.40953515625 1.1115 3.37878515625 1.089 Q 3.34803515625 1.0665 3.33753515625 1.044 L 3.32703515625 1.0215 L 3.03753515625 0.18899999999999995 Q 3.02103515625 0.13949999999999996 3.02103515625 0.11549999999999994 Q 3.02103515625 0.05549999999999988 3.12153515625 0.020999999999999908 Q 3.16503515625 0.006000000000000005 3.20028515625 0.006000000000000005 Q 3.23553515625 0.006000000000000005 3.25428515625 0.030000000000000027 Q 3.27303515625 0.05400000000000005 3.28803515625 0.10349999999999993 L 3.45303515625 0.6044999999999999 L 3.61653515625 0.11099999999999999 Q 3.6375351562500002 0.04800000000000004 3.69303515625 0.02400000000000002 Q 3.71703515625 0.013500000000000068 3.7552851562500003 0.013500000000000068 Q 3.79353515625 0.013500000000000068 3.8265351562500003 0.038249999999999895 Q 3.8595351562499998 0.06299999999999994 3.86853515625 0.08699999999999997 L 4.04103515625 0.6074999999999999 L 4.20603515625 0.10349999999999993 Q 4.21803515625 0.06899999999999995 4.22553515625 0.05249999999999999 Q 4.23303515625 0.03600000000000003 4.25328515625 0.02024999999999988 Q 4.27353515625 0.0044999999999999485 4.30353515625 0.0044999999999999485 Q 4.33353515625 0.0044999999999999485 4.37403515625 0.019500000000000073 M 4.5570703125 0.14549999999999996 Q 4.5570703125 0.11099999999999999 4.5593203125 0.09375 Q 4.5615703125 0.07650000000000001 4.5735703125 0.05400000000000005 Q 4.5945703125 0.013500000000000068 4.6905703125 0.013500000000000068 Q 4.7955703125 0.013500000000000068 4.8150703125 0.06899999999999995 Q 4.8225703125 0.09450000000000003 4.8225703125 0.14700000000000002 L 4.8225703125 0.981 Q 4.8225703125 1.017 4.8203203125 1.0335 Q 4.8180703125 1.05 4.8060703125 1.0725 Q 4.7850703125 1.113 4.6890703125 1.113 Q 4.5840703125 1.113 4.5660703125 1.056 Q 4.5570703125 1.032 4.5570703125 0.9795 L 4.5570703125 0.14549999999999996" fill="#3f170e" fill-rule="nonzero"></path></g><g></g></g><defs><clipPath id="SvgjsClipPath172626"><path d=" M 5.282598876953125 -0.5111669720805101 h 2.13533394416102 v 2.13533394416102 h -2.13533394416102 Z"></path></clipPath><clipPath id="SvgjsClipPath1726215cc25116-2e8b-44c9-bfa9-7c30dddffc43"><path d=" M 5.282598876953125 -0.5111669720805101 L 7.417932821114146 -0.5111669720805101 L 7.417932821114146 1.62416697208051 L 5.282598876953125 1.62416697208051 Z"></path></clipPath></defs></svg>