<svg xmlns="http://www.w3.org/2000/svg" xmlns:xlink="http://www.w3.org/1999/xlink" aria-hidden="true" role="img" class="iconify iconify--logos" width="31.88" height="32" preserveAspectRatio="xMidYMid meet" viewBox="0 0 256 257"><defs><linearGradient id="IconifyId1813088fe1fbc01fb466" x1="-.828%" x2="57.636%" y1="7.652%" y2="78.411%"><stop offset="0%" stop-color="#FF00FF"></stop><stop offset="100%" stop-color="#FF8C00"></stop></linearGradient></defs><path fill="url(#IconifyId1813088fe1fbc01fb466)" d="M255.153 37.938L134.897 252.976c-2.483 4.44-8.862 4.466-11.382.048L.875 37.958c-2.746-4.814 1.371-10.646 6.827-10.755l131.68-1.431c4.71-.119 9.462-1.846 13.807-5.537L255.618 10.541c3.432-3.296 8.817-.63 8.678 4.297l-.56 39.1Z"></path><path fill="#000" d="M185.432.063L96.44 17.501a6.534 6.534 0 0 0-5.861 5.487L51.622 148.694a6.577 6.577 0 0 0 5.unhappy.86 5.487l88.992-17.438a6.577 6.577 0 0 0 5.861-5.487l38.956-125.706a6.594 6.594 0 0 0-5.861-5.487Z"></path><path fill="#fff" d="M185.432.063L96.44 17.501a6.534 6.534 0 0 0-5.861 5.487L51.622 148.694a6.577 6.577 0 0 0 5.861 5.487l88.992-17.438a6.577 6.577 0 0 0 5.861-5.487l38.956-125.706a6.594 6.594 0 0 0-5.861-5.487Z"></path></svg>
